<svg width="900" height="900" viewBox="0 0 900 900" fill="none" xmlns="http://www.w3.org/2000/svg">
<rect width="900" height="900" fill="#0B354B"/>
<path d="M816.934 23.9223C816.334 24.5223 804.534 27.7223 789.634 31.4223C776.834 34.6223 767.434 37.0223 754.134 40.7223C747.234 42.5223 740.334 44.3223 738.634 44.6223C737.034 44.9223 732.934 45.8223 729.634 46.8223C726.334 47.7223 716.034 50.4223 706.634 52.8223C679.034 59.8223 657.634 65.5223 657.034 65.9223C656.434 66.2223 653.334 78.6223 649.734 94.8223C648.934 98.6223 646.434 109.422 644.234 118.822C639.634 138.222 629.834 181.322 628.234 188.822C627.634 191.522 625.534 200.322 623.634 208.322C621.634 216.322 619.634 225.022 619.134 227.822C618.634 230.522 617.034 237.522 615.634 243.322C614.234 249.122 611.734 259.922 610.134 267.322C608.434 274.722 606.634 282.622 606.134 284.822C604.134 293.122 598.234 319.122 596.634 326.322C595.734 330.422 593.234 341.422 591.034 350.822C583.934 381.022 580.334 396.622 578.634 404.322C574.834 421.022 567.734 451.822 561.534 478.322C559.034 489.022 556.134 501.822 555.134 506.822C554.034 511.722 551.634 522.322 549.634 530.322C547.634 538.322 545.634 547.022 545.234 549.822C544.734 552.522 542.934 560.422 541.334 567.322C539.634 574.222 537.334 584.122 536.134 589.322C535.034 594.522 533.434 601.522 532.634 604.822C531.834 608.122 530.034 616.022 528.634 622.322C525.634 635.322 525.034 637.222 524.534 635.822C524.134 634.822 517.234 601.422 514.434 587.322C513.634 583.222 511.634 573.322 510.034 565.322C506.834 550.122 504.334 537.222 501.734 523.822C500.934 519.422 499.034 510.422 497.634 503.822C496.234 497.222 494.434 488.022 493.534 483.322C492.634 478.622 490.434 467.622 488.534 458.822C486.734 450.022 484.534 439.222 483.634 434.822C481.434 423.122 476.334 398.222 474.034 387.322C472.834 382.122 471.534 375.322 471.034 372.322C470.634 369.322 469.034 361.422 467.634 354.822C466.234 348.222 464.134 338.122 463.034 332.322C461.834 326.522 459.834 316.422 458.534 309.822C457.134 303.222 454.734 291.022 453.034 282.822C449.734 265.922 449.234 263.822 445.634 246.322C442.034 228.822 439.334 215.722 438.334 209.822C437.834 207.022 435.534 195.622 433.234 184.322C430.934 173.022 428.634 161.522 428.034 158.822C427.534 156.022 425.934 148.722 424.634 142.422C423.234 136.122 422.134 130.222 422.134 129.122C422.134 126.622 418.734 126.722 407.134 129.922C398.034 132.322 380.334 136.922 333.634 148.822C322.134 151.722 300.934 157.222 286.634 160.822C272.334 164.522 259.634 167.822 258.334 168.022C255.034 168.822 254.834 169.722 256.534 176.022C257.434 179.222 261.234 194.822 265.134 210.822C269.034 226.722 273.834 246.122 275.834 253.822C277.734 261.522 279.734 269.622 280.234 271.822C280.734 274.022 283.234 283.822 285.734 293.722C288.234 303.522 290.634 313.422 291.034 315.722C291.834 319.422 294.034 328.622 306.334 376.822C308.534 385.622 311.134 396.422 312.134 400.822C313.134 405.222 315.834 416.022 318.134 424.822C320.434 433.622 322.634 442.622 323.034 444.822C323.534 447.022 325.934 456.922 328.534 466.822C331.134 476.722 333.634 486.622 334.034 488.822C334.534 491.022 336.834 500.222 339.134 509.322C341.534 518.422 343.734 527.622 344.134 529.822C344.634 532.022 347.034 541.922 349.634 551.822C352.234 561.722 354.734 571.822 355.234 574.122C355.734 576.522 358.134 586.422 360.534 596.122C373.134 645.922 375.434 655.322 376.634 660.822C377.334 664.122 379.334 672.222 381.134 678.822C382.834 685.422 385.334 695.322 386.534 700.822C387.834 706.322 390.734 718.022 392.934 726.822C402.334 763.622 405.534 776.322 407.634 785.822C408.934 791.322 411.734 802.822 413.934 811.322C416.134 819.822 418.634 829.922 419.534 833.822C420.434 837.622 422.934 847.722 425.134 856.122C427.334 864.622 429.134 872.222 429.134 873.122C429.234 878.022 430.434 877.922 444.834 872.422C452.434 869.422 460.034 866.522 461.634 865.822C468.534 863.022 496.934 852.122 539.134 836.222C547.634 832.922 555.534 829.922 556.634 829.422C557.734 828.922 567.234 825.222 577.634 821.322C605.234 811.022 607.234 810.122 607.634 808.922C607.934 808.022 617.134 773.822 620.234 762.322C620.734 760.422 622.634 753.422 624.534 746.822C626.434 740.222 629.134 730.122 630.634 724.322C632.034 718.522 633.634 712.422 634.134 710.822C634.734 709.122 636.234 703.722 637.534 698.822C638.834 693.822 642.534 680.322 645.634 668.822C648.734 657.222 652.434 643.522 653.834 638.322C655.234 633.122 656.634 627.722 657.134 626.322C657.534 624.922 658.634 621.122 659.434 617.822C660.334 614.522 663.334 603.522 666.234 593.322C669.034 583.122 671.534 573.722 671.834 572.322C672.134 570.922 674.534 561.722 677.234 551.822C679.934 541.922 683.134 530.222 684.234 525.822C685.434 521.422 686.734 516.722 687.134 515.322C687.634 513.922 689.134 508.422 690.534 503.022C691.934 497.722 694.334 488.922 695.734 483.522C697.134 478.222 698.634 472.722 699.134 471.322C699.534 469.922 700.834 465.222 702.034 460.822C703.134 456.422 706.334 444.222 709.234 433.822C712.034 423.322 714.734 413.022 715.334 410.822C715.934 408.622 716.834 405.422 717.234 403.822C719.434 396.322 723.234 382.522 724.134 379.322C725.234 375.022 733.034 345.622 740.634 317.822C743.734 306.222 746.634 295.222 747.134 293.322C747.734 291.422 749.234 286.022 750.634 281.322C751.934 276.622 754.934 265.822 757.134 257.322C759.334 248.822 761.634 240.422 762.034 238.822C762.534 237.122 764.334 230.422 766.034 223.922C767.734 217.422 770.734 206.622 772.534 199.922C774.434 193.222 777.534 181.522 779.634 173.822C781.634 166.122 783.634 158.722 784.134 157.322C784.634 155.922 785.734 151.922 786.634 148.322C788.434 141.222 796.834 110.122 803.634 85.3223C806.034 76.8223 808.734 66.6223 809.634 62.8223C810.534 58.9223 811.734 54.4223 812.234 52.8223C819.834 28.0223 820.934 23.3223 818.934 23.3223C818.134 23.3223 817.234 23.6223 816.934 23.9223ZM173.634 313.522C173.434 314.822 171.234 324.122 168.734 334.322C166.334 344.522 162.034 362.722 159.234 374.822C156.334 386.922 151.534 407.122 148.534 419.822C145.534 432.422 140.834 452.222 138.134 463.822C135.434 475.322 131.634 491.422 129.634 499.622C127.734 507.722 126.134 514.522 126.134 514.822C126.134 515.322 132.034 518.122 146.134 524.022C151.934 526.522 162.234 530.922 169.134 533.822C176.034 536.722 187.534 541.622 194.634 544.622C201.834 547.622 211.834 552.022 217.034 554.222C222.134 556.422 226.734 558.022 227.234 557.822C227.634 557.522 227.634 556.022 227.134 554.522C226.334 551.922 223.034 536.922 212.134 484.822C209.534 472.122 204.734 449.622 201.634 434.822C198.534 419.922 193.834 397.422 191.134 384.822C188.534 372.122 184.234 352.122 181.734 340.322C179.234 328.522 176.934 317.122 176.534 315.022C175.834 310.922 174.434 310.122 173.634 313.522ZM99.6343 636.522C98.4343 640.322 95.4343 651.622 92.1343 664.822C86.1343 688.722 82.0343 703.722 81.0343 705.522C79.6343 708.222 79.9342 709.122 82.2342 709.822C83.4342 710.222 94.8343 715.622 107.534 721.822C130.634 733.022 143.534 739.322 173.634 753.822C182.434 758.022 200.134 766.622 212.934 772.922C225.734 779.222 236.434 784.322 236.634 784.322C236.834 784.322 245.834 788.622 256.634 793.922C267.434 799.222 276.534 803.322 276.734 803.022C277.034 802.822 276.134 797.722 274.834 791.722C273.534 785.722 271.834 777.922 271.134 774.322C269.034 762.822 265.134 743.922 264.234 740.322C263.734 738.422 262.134 730.322 260.634 722.322C259.134 714.322 257.734 707.222 257.534 706.622C257.334 705.922 255.334 704.522 252.934 703.422C250.534 702.322 232.034 694.022 211.634 684.822C191.334 675.622 169.334 665.622 162.934 662.722C156.534 659.722 151.034 657.322 150.734 657.322C150.434 657.322 146.034 655.322 141.034 652.822C135.934 650.322 131.534 648.322 131.034 648.322C130.634 648.322 125.634 646.122 119.934 643.522C100.834 634.522 100.334 634.322 99.6343 636.522Z" fill="white"/>
</svg>
